<?xml version="1.0" encoding="UTF-8" standalone="no"?>
<!-- Created with Inkscape (http://www.inkscape.org/) -->

<svg
   width="512"
   height="512"
   viewBox="0 0 135.46666 135.46667"
   version="1.1"
   id="svg1"
   inkscape:version="1.4 (86a8ad7, 2024-10-11)"
   xml:space="preserve"
   sodipodi:docname="KUA_HarvestGrown.svg"
   xmlns:inkscape="http://www.inkscape.org/namespaces/inkscape"
   xmlns:sodipodi="http://sodipodi.sourceforge.net/DTD/sodipodi-0.dtd"
   xmlns="http://www.w3.org/2000/svg"
   xmlns:svg="http://www.w3.org/2000/svg"
   xmlns:rdf="http://www.w3.org/1999/02/22-rdf-syntax-ns#"
   xmlns:cc="http://creativecommons.org/ns#"
   xmlns:dc="http://purl.org/dc/elements/1.1/"><sodipodi:namedview
     id="namedview1"
     pagecolor="#ffffff"
     bordercolor="#000000"
     borderopacity="0.25"
     inkscape:showpageshadow="2"
     inkscape:pageopacity="0.0"
     inkscape:pagecheckerboard="0"
     inkscape:deskcolor="#d1d1d1"
     inkscape:document-units="mm"
     showguides="true"
     showgrid="true"
     inkscape:zoom="0.74016565"
     inkscape:cx="582.97761"
     inkscape:cy="570.81817"
     inkscape:window-width="2560"
     inkscape:window-height="1377"
     inkscape:window-x="2552"
     inkscape:window-y="-8"
     inkscape:window-maximized="1"
     inkscape:current-layer="layer1" /><defs
     id="defs1" /><g
     inkscape:label="Layer 1"
     inkscape:groupmode="layer"
     id="layer1"><g
       id="g3"
       transform="matrix(0.6581418,0,0,0.6581418,3.3563742,25.200834)"><path
         id="path1"
         style="display:inline;fill:#c5c5c5;fill-opacity:1;stroke:none;stroke-width:3;stroke-linecap:round;stroke-linejoin:round;stroke-dasharray:none;stroke-dashoffset:1.13386;stroke-opacity:1"
         d="M 17.820101,30.205391 C 12.975415,31.511348 11.33248,35.007956 12.891203,40.69519 28.478436,64.286678 50.173922,83.960475 74.186686,98.452389 60.326687,129.92176 104.308,132.28073 102.74928,107.67818 122.47235,111.37129 129.38656,71.522781 95.292891,77.599398 L 80.37959,85.561186 Z m 85.983379,56.031206 a 6.6979742,6.0959091 0 0 1 6.6983,6.095752 6.6979742,6.0959091 0 0 1 -6.6983,6.095752 6.6979742,6.0959091 0 0 1 -6.697779,-6.095752 6.6979742,6.0959091 0 0 1 6.697779,-6.095752 z M 87.364176,102.53018 a 6.6979742,6.0959091 0 0 1 6.697783,6.09575 6.6979742,6.0959091 0 0 1 -6.697783,6.09627 6.6979742,6.0959091 0 0 1 -6.698299,-6.09627 6.6979742,6.0959091 0 0 1 6.698299,-6.09575 z" /><path
         style="display:inline;fill:#e4e38b;fill-opacity:1;stroke:none;stroke-width:3;stroke-linecap:round;stroke-linejoin:round;stroke-dasharray:none;stroke-dashoffset:1.13386;stroke-opacity:1"
         d="M 45.245104,99.463398 23.254466,83.791908 C 36.059368,58.262548 45.139515,31.681879 61.927655,7.2038294 62.460653,11.752137 61.196823,18.281924 58.136167,26.79319 65.32203,19.237316 71.848707,11.516645 82.907229,4.9289358 L 72.670209,27.045957 85.94042,20.979573 c -2.369217,7.660522 -7.386328,13.55578 -11.627233,19.96851 l 17.567232,1.390213 C 69.426378,56.493188 53.881273,75.534889 45.245104,99.463398 Z"
         id="path3"
         sodipodi:nodetypes="cccccccccc" /><path
         style="display:inline;fill:#c5c5c5;fill-opacity:1;stroke:none;stroke-width:3;stroke-linecap:round;stroke-linejoin:round;stroke-dasharray:none;stroke-dashoffset:1.13386;stroke-opacity:1"
         d="M 80.37959,85.561185 30.205529,22.748935 c -1.221701,-6.782553 1.600852,-9.520851 8.467661,-8.214894 27.467275,16.471998 46.340509,37.493783 56.6197,63.065355 z"
         id="path2"
         sodipodi:nodetypes="ccccc" /><path
         id="path1-7"
         style="display:inline;fill:none;fill-opacity:1;stroke:#000000;stroke-width:5;stroke-linecap:round;stroke-linejoin:round;stroke-dasharray:none;stroke-dashoffset:1.13386;stroke-opacity:1"
         d="m 82.907603,4.9288983 c -11.05852,6.5877087 -17.58524,14.3084247 -24.7711,21.8642987 3.06065,-8.511266 4.32449,-15.041194 3.7915,-19.5895017 -3.63746,5.3036147 -6.89804,10.7104227 -9.92808,16.1793737 -4.19306,-3.08166 -8.631,-6.033313 -13.32632,-8.849073 -6.86681,-1.305957 -9.6894,1.43245 -8.4677,8.215003 l 13.47412,16.868221 c -1.51595,3.173083 -2.97823,6.360319 -4.43022,9.550321 l -21.4297,-18.96215 c -4.84468,1.305957 -6.48762,4.802565 -4.9289,10.489799 5.67723,8.592566 12.17302,16.657894 19.28771,24.149947 -2.8638,6.347546 -5.78039,12.679161 -8.924,18.946651 l 21.99039,15.671388 c 2.03033,-5.625518 4.45717,-10.970538 7.25123,-16.055868 6.92772,5.49401 14.19575,10.52214 21.69015,15.045078 -13.86,31.469374 30.121317,33.828344 28.562597,9.225794 19.72307,3.69311 26.63728,-36.155399 -7.456387,-30.078782 -3.85769,-9.596785 -8.92624,-18.552442 -15.20476,-26.867611 3.69337,-2.965765 7.62264,-5.764593 11.79256,-8.393286 l -17.5674,-1.390613 c 4.2409,-6.41273 9.25798,-12.307768 11.6272,-19.96829 l -13.27,6.066296 z M 64.599673,65.806319 80.379583,85.561188 61.864443,69.17769 c 0.88813,-1.14051 1.79918,-2.26475 2.73523,-3.371371 z m 39.203807,20.430279 a 6.6979742,6.0959091 0 0 1 6.6983,6.09575 6.6979742,6.0959091 0 0 1 -6.6983,6.095748 6.6979742,6.0959091 0 0 1 -6.69778,-6.095748 6.6979742,6.0959091 0 0 1 6.69778,-6.09575 z M 87.364173,102.53018 a 6.6979742,6.0959091 0 0 1 6.69778,6.09575 6.6979742,6.0959091 0 0 1 -6.69778,6.09627 6.6979742,6.0959091 0 0 1 -6.6983,-6.09627 6.6979742,6.0959091 0 0 1 6.6983,-6.09575 z" /></g><path
       id="path4"
       style="fill:#14f40b;fill-opacity:1;stroke:#000000;stroke-width:4.99999;stroke-linecap:round;stroke-linejoin:round;stroke-dasharray:none;stroke-dashoffset:1.13386;stroke-opacity:1"
       d="M 105.98836,32.076028 85.791663,52.273244 H 99.37533 v 51.117296 h 6.61303 6.61304 V 52.273244 h 13.58366 z" /></g><metadata
     id="metadata9"><rdf:RDF><cc:Work
         rdf:about=""><dc:creator><cc:Agent><dc:title>Kieran David Evans</dc:title></cc:Agent></dc:creator><dc:rights><cc:Agent><dc:title>CC BY-SA - https://creativecommons.org/licenses/by-sa/4.0/</dc:title></cc:Agent></dc:rights><cc:license
           rdf:resource="http://creativecommons.org/licenses/by-sa/4.0/" /></cc:Work><cc:License
         rdf:about="http://creativecommons.org/licenses/by-sa/4.0/"><cc:permits
           rdf:resource="http://creativecommons.org/ns#Reproduction" /><cc:permits
           rdf:resource="http://creativecommons.org/ns#Distribution" /><cc:requires
           rdf:resource="http://creativecommons.org/ns#Notice" /><cc:requires
           rdf:resource="http://creativecommons.org/ns#Attribution" /><cc:permits
           rdf:resource="http://creativecommons.org/ns#DerivativeWorks" /><cc:requires
           rdf:resource="http://creativecommons.org/ns#ShareAlike" /></cc:License></rdf:RDF></metadata></svg>
